<?xml version="1.0" encoding="UTF-8" standalone="no"?>
<svg
   xmlns:dc="http://purl.org/dc/elements/1.1/"
   xmlns:cc="http://creativecommons.org/ns#"
   xmlns:rdf="http://www.w3.org/1999/02/22-rdf-syntax-ns#"
   xmlns:svg="http://www.w3.org/2000/svg"
   xmlns="http://www.w3.org/2000/svg"
   xmlns:sodipodi="http://sodipodi.sourceforge.net/DTD/sodipodi-0.dtd"
   xmlns:inkscape="http://www.inkscape.org/namespaces/inkscape"
   width="158.75mm"
   height="158.75mm"
   viewBox="0 0 158.75 158.75"
   version="1.1"
   id="svg8"
   inkscape:version="1.0.2 (e86c870879, 2021-01-15)"
   sodipodi:docname="icon.svg">
  <defs
     id="defs2" />
  <sodipodi:namedview
     id="base"
     pagecolor="#ffffff"
     bordercolor="#666666"
     borderopacity="1.0"
     inkscape:pageopacity="0.0"
     inkscape:pageshadow="2"
     inkscape:zoom="0.49497475"
     inkscape:cx="320.89909"
     inkscape:cy="416.97546"
     inkscape:document-units="mm"
     inkscape:current-layer="layer1"
     inkscape:document-rotation="0"
     showgrid="false"
     fit-margin-top="0"
     fit-margin-left="0"
     fit-margin-right="0"
     fit-margin-bottom="0"
     inkscape:window-width="2560"
     inkscape:window-height="1024"
     inkscape:window-x="0"
     inkscape:window-y="24"
     inkscape:window-maximized="1" />
  <metadata
     id="metadata5">
    <rdf:RDF>
      <cc:Work
         rdf:about="">
        <dc:format>image/svg+xml</dc:format>
        <dc:type
           rdf:resource="http://purl.org/dc/dcmitype/StillImage" />
        <dc:title></dc:title>
      </cc:Work>
    </rdf:RDF>
  </metadata>
  <g
     inkscape:label="Layer 1"
     inkscape:groupmode="layer"
     id="layer1"
     transform="translate(-21.150196,-40.056042)">
    <g
       id="g1085"
       transform="matrix(0.26458333,0,0,0.26458333,25.276836,58.112233)">
      <rect
         style="fill:#ac9fbb;fill-opacity:1;stroke-width:0.909356"
         id="rect889"
         width="600"
         height="600"
         x="-15.59675"
         y="-68.243874"
         inkscape:export-xdpi="96"
         inkscape:export-ydpi="96" />
      <g
         id="g895"
         transform="matrix(1.6194909,0,0,1.6194914,-214.14258,-121.81262)"
         inkscape:export-xdpi="96"
         inkscape:export-ydpi="96">
        <path
           d="m 431.33659,218.27226 a 123.49556,123.49556 0 1 0 -64.14311,108.34652 c 8.54012,6.0763 29.37384,18.19608 49.95521,9.46586 l -24.77448,-27.77168 a 123.19385,123.19385 0 0 0 38.96238,-90.0407 z"
           fill="#ac9fbb"
           id="path202"
           style="fill:#645d6b;fill-opacity:1;stroke:none;stroke-opacity:1" />
        <path
           d="m 273.37408,197.72625 c 25.55854,-0.26611 51.11383,-0.72306 76.67122,-1.07026 q 12.78036,-0.17363 25.56124,-0.30438 c 7.34163,-0.0764 7.3604,-11.49274 0,-11.41611 -25.55853,0.26612 -51.11383,0.72306 -76.67122,1.07026 q -12.78036,0.17362 -25.56124,0.30439 c -7.34162,0.0764 -7.36039,11.49273 0,11.4161 z"
           fill="#ffffff"
           id="path204"
           style="stroke:none;stroke-opacity:1" />
        <path
           d="m 518.64809,384.70845 103.29728,-1.07026 29.37812,-0.30439 c 7.34165,-0.0761 7.36038,-11.49236 0,-11.4161 l -103.29728,1.0703 -29.37812,0.30439 c -7.34165,0.0761 -7.36038,11.49236 0,11.4161 z"
           transform="translate(-274.01152,-160.17641)"
           fill="#ffffff"
           id="path206" />
        <path
           d="m 518.64809,411.346 103.29728,-1.07026 29.37812,-0.30439 c 7.34165,-0.0761 7.36038,-11.49236 0,-11.4161 l -103.29728,1.07026 -29.37812,0.30439 c -7.34165,0.0761 -7.36038,11.49236 0,11.4161 z"
           transform="translate(-274.01152,-160.17641)"
           fill="#ffffff"
           id="path208" />
      </g>
    </g>
  </g>
</svg>
